<svg height="512pt" viewBox="0 -67 512.00075 512" width="512pt" xmlns="http://www.w3.org/2000/svg"><path d="m328.027344 202.574219h-4.269532c-11.011718 0-19.9375-8.925781-19.9375-19.9375 0-11.007813 8.925782-19.933594 19.9375-19.933594h4.269532c44.816406 0 87.445312-21.535156 114.039062-57.609375 4.980469-6.757812 2.585938-13.292969 1.324219-15.792969-1.257813-2.496093-5.097656-8.300781-13.496094-8.300781h-36.03125c-11.011719 0-19.9375-8.925781-19.9375-19.9375s8.925781-19.933594 19.9375-19.933594h36.03125c20.871094 0 39.679688 11.570313 49.085938 30.195313 9.410156 18.625 7.5625 40.628906-4.820313 57.425781-34.074218 46.226562-88.703125 73.824219-146.132812 73.824219zm0 0" fill="#fab838"/><path d="m265.390625 353.917969h-19.152344l-30.320312-109.164063h80.773437zm0 0" fill="#fad200"/><path d="m392.386719 0h-272.167969c-4.777344 0-8.960938 3.269531-10.039062 7.921875-2.480469 10.675781-3.816407 21.789063-3.878907 33.203125h-21.597656c-20.675781 0-39.972656 11.164062-49.558594 29.484375-9.820312 18.773437-8.085937 41.128906 4.453125 58.140625 26.4375 35.863281 65.25 60.503906 108.136719 69.753906 27.320313 39.402344 65.859375 68.351563 108.570313 68.351563 82.851562 0 150.019531-108.960938 150.019531-191.816407v-33.046874c0-11.71875-1.351563-23.121094-3.890625-34.0625-1.082032-4.65625-5.265625-7.929688-10.046875-7.929688zm-320.691407 105.09375c-4.984374-6.757812-2.589843-13.296875-1.328124-15.792969 1.261718-2.496093 5.101562-8.300781 13.5-8.300781h22.542968c.796875 21.175781 5.78125 43.800781 14.132813 65.726562-19.03125-9.871093-35.859375-24.011718-48.847657-41.632812zm0 0" fill="#fad200"/><path d="m273.699219 244.753906-29.351563 102.367188 1.890625 6.796875h19.152344l31.300781-109.164063zm0 0" fill="#fab700"/><path d="m478.980469 71.324219c-9.410157-18.625-28.21875-30.195313-49.085938-30.195313h-23.582031c-.066406-11.414062-1.398438-22.527344-3.878906-33.199218-1.082032-4.65625-5.265625-7.929688-10.042969-7.929688h-39.390625c2.445312 10.742188 3.746094 21.914062 3.746094 33.394531v33.050781c0 80-62.621094 184.332032-141.523438 191.421876 13.058594 5.753906 26.835938 8.992187 41.078125 8.992187 42.605469 0 81.058594-28.8125 108.367188-68.070313 43.425781-9.019531 82.777343-33.796874 109.492187-70.039062 12.382813-16.796875 14.230469-38.800781 4.820313-57.425781zm-36.914063 33.769531c-13.316406 18.066406-30.660156 32.480469-50.28125 42.375 8.519532-22.15625 13.605469-45.050781 14.414063-66.46875h23.695312c8.398438 0 12.238281 5.804688 13.496094 8.300781 1.261719 2.496094 3.65625 9.035157-1.324219 15.792969zm0 0" fill="#fab700"/><path d="m78.46875 252.019531c23.414062 5.429688 41.230469 20.058594 48.902344 27.285157 2.011718 1.894531 1.234375 5.25-1.40625 6.066406-10.070313 3.113281-32.507813 8.410156-55.917969 2.980468-23.414063-5.425781-41.234375-20.054687-48.902344-27.28125-2.011719-1.898437-1.234375-5.25 1.40625-6.066406 10.066407-3.117187 32.507813-8.414062 55.917969-2.984375zm0 0" fill="#1dc2ff"/><path d="m41.832031 204.292969c12.675781 12.675781 18.554688 28.78125 20.933594 37.257812.757813 2.695313-1.738281 5.191407-4.433594 4.4375-8.476562-2.382812-24.582031-8.261719-37.257812-20.9375-12.679688-12.675781-18.558594-28.78125-20.9375-37.257812-.757813-2.699219 1.738281-5.195313 4.4375-4.4375 8.472656 2.378906 24.582031 8.261719 37.257812 20.9375zm0 0" fill="#1dc2ff"/><path d="m113.582031 268.140625c-11.382812 3.019531-31.023437 6.425781-51.414062 1.699219-14.050781-3.257813-26.078125-9.828125-35.117188-16.125-1.691406.449218-3.199219.886718-4.503906 1.289062-2.636719.816406-3.410156 4.171875-1.398437 6.066406 7.671874 7.226563 25.488281 21.855469 48.898437 27.28125 23.410156 5.429688 45.847656.132813 55.917969-2.980468 2.644531-.820313 3.410156-4.179688 1.390625-6.078125-3.066407-2.890625-7.757813-6.960938-13.773438-11.152344zm0 0" fill="#00a2ff"/><path d="m21.074219 207.984375c-7.761719-7.757813-12.96875-16.800781-16.390625-24.59375-.039063-.011719-.074219-.019531-.109375-.03125-2.699219-.757813-5.191407 1.738281-4.4375 4.433594 2.378906 8.476562 8.261719 24.582031 20.9375 37.257812 12.671875 12.675781 28.777343 18.554688 37.253906 20.933594 2.703125.761719 5.191406-1.742187 4.433594-4.445313-.925781-3.285156-2.375-7.71875-4.542969-12.652343-8.5-2.394531-24.519531-8.273438-37.144531-20.902344zm0 0" fill="#00a2ff"/><path d="m433.53125 252.019531c-23.410156 5.429688-41.230469 20.058594-48.902344 27.285157-2.011718 1.894531-1.234375 5.25 1.410156 6.066406 10.066407 3.113281 32.503907 8.410156 55.917969 2.980468 23.410157-5.425781 41.230469-20.054687 48.898438-27.28125 2.011719-1.898437 1.234375-5.25-1.40625-6.066406-10.066407-3.117187-32.503907-8.414062-55.917969-2.984375zm0 0" fill="#1dc2ff"/><path d="m470.167969 204.292969c-12.675781 12.675781-18.554688 28.78125-20.933594 37.257812-.757813 2.695313 1.738281 5.191407 4.433594 4.4375 8.476562-2.382812 24.582031-8.261719 37.261719-20.9375 12.675781-12.675781 18.554687-28.78125 20.933593-37.257812.757813-2.695313-1.738281-5.191407-4.433593-4.4375-8.476563 2.378906-24.582032 8.261719-37.261719 20.9375zm0 0" fill="#1dc2ff"/><path d="m398.417969 268.140625c11.382812 3.019531 31.023437 6.425781 51.417969 1.699219 14.046874-3.257813 26.074218-9.828125 35.113281-16.125 1.691406.449218 3.199219.886718 4.503906 1.289062 2.636719.816406 3.410156 4.171875 1.398437 6.066406-7.667968 7.226563-25.488281 21.855469-48.898437 27.28125-23.410156 5.429688-45.847656.132813-55.914063-2.980468-2.648437-.820313-3.414062-4.179688-1.394531-6.078125 3.070313-2.890625 7.757813-6.960938 13.773438-11.152344zm0 0" fill="#00a2ff"/><path d="m490.929688 207.984375c7.757812-7.757813 12.964843-16.800781 16.390624-24.59375.035157-.011719.070313-.019531.105469-.03125 2.699219-.757813 5.195313 1.738281 4.4375 4.433594-2.378906 8.476562-8.261719 24.582031-20.933593 37.257812-12.675782 12.675781-28.78125 18.554688-37.257813 20.933594-2.703125.761719-5.191406-1.742187-4.429687-4.445313.921874-3.285156 2.371093-7.71875 4.539062-12.652343 8.5-2.394531 24.519531-8.273438 37.148438-20.902344zm0 0" fill="#00a2ff"/><path d="m144.707031 285.761719c23.667969-4.175781 45.792969 2.308593 55.679688 5.953125 2.59375.957031 3.195312 4.347656 1.082031 6.132812-8.042969 6.808594-26.617188 20.46875-50.285156 24.644532-23.667969 4.171874-45.792969-2.3125-55.679688-5.957032-2.59375-.957031-3.191406-4.347656-1.082031-6.132812 8.042969-6.808594 26.617187-20.46875 50.285156-24.640625zm0 0" fill="#1dc2ff"/><path d="m181.382812 286.457031c-9.324218 7.230469-25.992187 17.960938-46.496093 21.578125-13.359375 2.355469-26.222657 1.3125-36.675781-.695312-1.441407 1.117187-2.707032 2.152344-3.789063 3.066406-2.109375 1.785156-1.507813 5.175781 1.085937 6.128906 9.886719 3.648438 32.011719 10.128906 55.675782 5.957032 23.667968-4.171876 42.238281-17.832032 50.285156-24.640626 2.109375-1.785156 1.511719-5.175781-1.082031-6.132812-4.308594-1.585938-10.9375-3.710938-19.003907-5.261719zm0 0" fill="#00a2ff"/><path d="m367.292969 285.761719c-23.667969-4.175781-45.792969 2.308593-55.679688 5.953125-2.59375.957031-3.191406 4.347656-1.082031 6.132812 8.042969 6.808594 26.617188 20.46875 50.285156 24.644532 23.667969 4.171874 45.792969-2.3125 55.679688-5.957032 2.59375-.957031 3.191406-4.347656 1.082031-6.132812-8.042969-6.808594-26.617187-20.46875-50.285156-24.640625zm0 0" fill="#1dc2ff"/><path d="m330.617188 286.457031c9.324218 7.230469 25.992187 17.960938 46.496093 21.578125 13.359375 2.355469 26.222657 1.3125 36.675781-.695312 1.441407 1.117187 2.710938 2.152344 3.789063 3.066406 2.109375 1.785156 1.507813 5.175781-1.085937 6.128906-9.886719 3.648438-32.011719 10.128906-55.675782 5.957032-23.667968-4.171876-42.238281-17.832032-50.28125-24.640626-2.113281-1.785156-1.515625-5.175781 1.082032-6.132812 4.304687-1.585938 10.9375-3.710938 19-5.261719zm0 0" fill="#00a2ff"/><path d="m321.90625 377.773438c4.90625 0 7.84375-5.421876 5.203125-9.558594-16.445313-25.75-42.046875-42.304688-70.804687-42.304688-28.761719 0-54.363282 16.554688-70.804688 42.304688-2.640625 4.132812.292969 9.558594 5.199219 9.558594zm0 0" fill="#fad200"/><path d="m256.304688 325.910156c-5.414063 0-10.710938.597656-15.859376 1.722656 25.460938 5.554688 47.210938 24.238282 60.410157 50.136719h21.050781c4.902344 0 7.839844-5.421875 5.199219-9.554687-16.441407-25.75-42.042969-42.304688-70.800781-42.304688zm0 0" fill="#fab700"/><path d="m258.714844 58.050781 3.003906 12.261719c4.863281 19.878906 18.679688 33.890625 37.394531 42.171875 1.769531 1.179687 1.769531 3.785156 0 4.964844-18.714843 8.28125-32.53125 22.292969-37.394531 42.171875l-3.003906 12.261718c-.617188 2.523438-4.207032 2.523438-4.824219 0l-3-12.261718c-4.867187-19.878906-18.679687-33.890625-37.394531-42.171875-1.773438-1.179688-1.773438-3.785157 0-4.964844 18.714844-8.28125 32.527344-22.292969 37.394531-42.171875l3-12.261719c.617187-2.523437 4.207031-2.523437 4.824219 0zm0 0" fill="#fab700"/><path d="m270.765625 112.484375c-11.859375-5.246094-21.742187-12.804687-28.636719-22.691406-6.890625 9.886719-16.773437 17.445312-28.632812 22.691406-1.773438 1.179687-1.773438 3.785156 0 4.964844 11.859375 5.25 21.742187 12.804687 28.632812 22.691406 6.894532-9.886719 16.777344-17.441406 28.636719-22.691406 1.773437-1.179688 1.773437-3.785157 0-4.964844zm0 0" fill="#ffee57"/></svg>